<?xml version="1.0" encoding="UTF-8"?>
<svg xmlns="http://www.w3.org/2000/svg" xmlns:xlink="http://www.w3.org/1999/xlink" viewBox="0 0 30 30" width="30px" height="30px">
<g id="surface81361545">
<path style=" stroke:none;fill-rule:nonzero;fill:rgb(92.941177%,81.176472%,45.882353%);fill-opacity:1;" d="M 9.84375 24.734375 L 1.527344 16.421875 C 0.550781 15.445312 0.550781 13.859375 1.527344 12.882812 L 2.410156 12 C 3.386719 11.023438 4.96875 11.023438 5.945312 12 L 11.875 17.929688 L 24.054688 5.75 C 25.03125 4.773438 26.613281 4.773438 27.589844 5.75 L 28.472656 6.632812 C 29.078125 7.242188 29.308594 8.082031 29.160156 8.863281 C 29.074219 9.34375 28.21875 9.800781 27.847656 10.171875 L 13.90625 24.109375 C 13.347656 24.671875 12.609375 25.578125 11.875 25.578125 C 11.140625 25.578125 10.402344 25.296875 9.84375 24.734375 Z M 9.84375 24.734375 "/>
<path style=" stroke:none;fill-rule:nonzero;fill:rgb(19.607843%,27.058825%,38.039216%);fill-opacity:1;" d="M 11.875 25.578125 C 11.53125 25.578125 11.25 25.296875 11.25 24.953125 C 11.25 24.605469 11.53125 24.328125 11.875 24.328125 C 12.308594 24.328125 12.71875 24.15625 13.023438 23.851562 L 27.589844 9.285156 C 27.765625 9.105469 27.886719 8.882812 27.933594 8.632812 C 27.996094 8.296875 28.328125 8.074219 28.660156 8.132812 C 29 8.199219 29.226562 8.523438 29.160156 8.863281 C 29.070312 9.359375 28.832031 9.8125 28.472656 10.167969 L 13.90625 24.734375 C 13.363281 25.277344 12.640625 25.578125 11.875 25.578125 Z M 11.875 25.578125 "/>
</g>
</svg>
